<svg width="313" height="128" viewBox="0 0 313 128" fill="none" xmlns="http://www.w3.org/2000/svg">
<line x1="51" y1="119" x2="51" y2="40" stroke="#840067" stroke-width="10"/>
<path d="M20.847 66.6822C20.887 14.4814 43.539 53.0416 118.12 34.2291" stroke="#840067" stroke-width="20"/>
<path d="M100.336 61.7734C100.232 64.013 100.154 66.2526 100.102 68.4922C100.076 70.7057 100.049 72.7109 100.023 74.5078C99.9974 76.6172 99.9844 78.6354 99.9844 80.5625C99.9323 82.4635 99.8411 84.4297 99.7109 86.4609C99.5807 88.4661 99.3464 90.4193 99.0078 92.3203C98.6953 94.2214 98.2526 96.0182 97.6797 97.7109C97.1328 99.4036 96.4167 100.888 95.5312 102.164C94.6458 103.44 93.5651 104.443 92.2891 105.172C91.0391 105.927 89.5547 106.305 87.8359 106.305C86.4297 106.201 85.0885 105.797 83.8125 105.094C83.2656 104.781 82.7057 104.404 82.1328 103.961C81.5599 103.492 81.013 102.919 80.4922 102.242C79.9714 101.565 79.4766 100.771 79.0078 99.8594C78.5391 98.9479 78.1484 97.8802 77.8359 96.6562C76.9766 98.8958 75.974 100.628 74.8281 101.852C73.6823 103.076 72.6016 103.974 71.5859 104.547C70.362 105.224 69.138 105.628 67.9141 105.758C66.5078 105.758 65.3099 105.445 64.3203 104.82C63.3307 104.195 62.4974 103.336 61.8203 102.242C61.1432 101.122 60.6094 99.8203 60.2188 98.3359C59.8281 96.8516 59.5286 95.25 59.3203 93.5312C59.112 91.8125 58.9688 90.0156 58.8906 88.1406C58.8385 86.2656 58.8125 84.4036 58.8125 82.5547C58.8125 81.9297 58.8125 81.487 58.8125 81.2266C58.8385 80.9401 58.8516 80.6667 58.8516 80.4062C58.8776 80.1198 58.9036 79.7422 58.9297 79.2734C58.9557 78.7786 58.9688 78.0234 58.9688 77.0078C58.9948 75.9922 59.0078 74.612 59.0078 72.8672C59.0339 71.1224 59.0469 68.8307 59.0469 65.9922C59.0469 65.1068 59.0469 64.2474 59.0469 63.4141C59.0469 62.5547 59.0208 61.7604 58.9688 61.0312L70.0625 61.3438C69.1771 65.9792 68.5781 70.5234 68.2656 74.9766C67.9792 79.4297 67.8359 83.8828 67.8359 88.3359C67.8359 91.2266 68.0312 93.3229 68.4219 94.625C68.8125 95.9271 69.5807 96.5781 70.7266 96.5781C71.2474 96.5781 71.7161 96.2917 72.1328 95.7188C72.5755 95.1198 72.9531 94.3385 73.2656 93.375C73.6042 92.3854 73.8906 91.2656 74.125 90.0156C74.3854 88.7656 74.5938 87.4896 74.75 86.1875C74.9062 84.8594 75.0234 83.5573 75.1016 82.2812C75.1797 81.0052 75.2188 79.8464 75.2188 78.8047C75.2188 77.7109 75.2057 76.6562 75.1797 75.6406C75.1797 74.625 75.1406 73.5703 75.0625 72.4766C75.0104 71.3568 74.9323 70.1849 74.8281 68.9609C74.75 67.7109 74.6328 66.3177 74.4766 64.7812L84.4766 65.2891C83.9557 68.362 83.513 71.3438 83.1484 74.2344C82.8099 77.099 82.6406 79.9505 82.6406 82.7891C82.6406 84.4036 82.7057 86.0573 82.8359 87.75C82.9922 89.4167 83.2266 90.9401 83.5391 92.3203C83.8776 93.6745 84.3073 94.7943 84.8281 95.6797C85.349 96.5391 85.974 96.9688 86.7031 96.9688C87.6146 96.9688 88.3568 96.4219 88.9297 95.3281C89.5286 94.2083 89.9844 92.763 90.2969 90.9922C90.6354 89.1953 90.8698 87.1901 91 84.9766C91.1302 82.737 91.1953 80.4974 91.1953 78.2578C91.1953 78.0234 91.1823 77.4635 91.1562 76.5781C91.1302 75.6927 91.0651 74.5339 90.9609 73.1016C90.8568 71.6693 90.7005 69.9766 90.4922 68.0234C90.2839 66.0703 89.9844 63.9089 89.5938 61.5391L100.336 61.7734ZM133.266 95.6016C133.266 97.138 132.914 98.5833 132.211 99.9375C131.508 101.292 130.557 102.464 129.359 103.453C128.161 104.443 126.755 105.224 125.141 105.797C123.526 106.37 121.807 106.656 119.984 106.656C118.76 106.656 117.523 106.487 116.273 106.148C115.023 105.81 113.826 105.25 112.68 104.469C111.534 103.688 110.453 102.659 109.438 101.383C108.422 100.107 107.536 98.5443 106.781 96.6953C106.052 94.8464 105.466 92.6849 105.023 90.2109C104.607 87.7109 104.398 84.8464 104.398 81.6172C104.398 78.5703 104.607 75.875 105.023 73.5312C105.466 71.1875 106.052 69.1432 106.781 67.3984C107.536 65.6536 108.409 64.1953 109.398 63.0234C110.388 61.8255 111.443 60.862 112.562 60.1328C113.708 59.3776 114.88 58.8438 116.078 58.5312C117.302 58.2188 118.5 58.0625 119.672 58.0625C121.417 58.0625 123.07 58.349 124.633 58.9219C126.195 59.4688 127.562 60.2891 128.734 61.3828C129.906 62.4766 130.831 63.8307 131.508 65.4453C132.211 67.0339 132.562 68.8698 132.562 70.9531C132.562 72.8281 132.172 74.7292 131.391 76.6562C130.635 78.5573 129.503 80.3672 127.992 82.0859C126.482 83.7786 124.607 85.3281 122.367 86.7344C120.154 88.1146 117.602 89.2083 114.711 90.0156C114.867 91.6302 115.089 93.1016 115.375 94.4297C115.688 95.7578 116.065 96.8906 116.508 97.8281C116.977 98.7656 117.51 99.4948 118.109 100.016C118.734 100.536 119.451 100.797 120.258 100.797C120.779 100.771 121.273 100.68 121.742 100.523C122.159 100.393 122.576 100.185 122.992 99.8984C123.435 99.612 123.799 99.1953 124.086 98.6484C123.409 98.3359 122.888 97.9323 122.523 97.4375C122.159 96.9427 121.885 96.474 121.703 96.0312C121.495 95.5104 121.378 94.9635 121.352 94.3906C121.352 93.1406 121.599 92.125 122.094 91.3438C122.589 90.5625 123.174 89.9505 123.852 89.5078C124.529 89.0651 125.219 88.7656 125.922 88.6094C126.625 88.4271 127.185 88.3359 127.602 88.3359C128.044 88.3359 128.578 88.4271 129.203 88.6094C129.854 88.7917 130.479 89.1432 131.078 89.6641C131.677 90.1849 132.185 90.9271 132.602 91.8906C133.044 92.8281 133.266 94.0651 133.266 95.6016ZM123.617 71.0312C123.617 70.0938 123.526 69.2083 123.344 68.375C123.188 67.5156 122.94 66.7734 122.602 66.1484C122.289 65.5234 121.885 65.0286 121.391 64.6641C120.922 64.2734 120.375 64.0781 119.75 64.0781C118.682 64.0781 117.81 64.5729 117.133 65.5625C116.456 66.526 115.909 67.8151 115.492 69.4297C115.076 71.0443 114.789 72.9062 114.633 75.0156C114.477 77.125 114.398 79.3255 114.398 81.6172V84.4688C115.727 83.7656 116.951 82.9323 118.07 81.9688C119.216 81.0052 120.193 79.9505 121 78.8047C121.833 77.6328 122.471 76.3958 122.914 75.0938C123.383 73.7917 123.617 72.4375 123.617 71.0312ZM164.438 68.8047C164.438 70.0026 164.216 71.0182 163.773 71.8516C163.331 72.6849 162.797 73.362 162.172 73.8828C161.547 74.4036 160.896 74.7812 160.219 75.0156C159.542 75.25 158.969 75.3672 158.5 75.3672C158.031 75.3672 157.471 75.2891 156.82 75.1328C156.169 74.9505 155.544 74.638 154.945 74.1953C154.372 73.7526 153.878 73.1667 153.461 72.4375C153.044 71.6823 152.836 70.7318 152.836 69.5859C152.862 68.9609 152.979 68.349 153.188 67.75C153.37 67.2292 153.643 66.6953 154.008 66.1484C154.398 65.5755 154.945 65.0677 155.648 64.625C155.18 63.9479 154.711 63.4271 154.242 63.0625C153.773 62.6979 153.357 62.4245 152.992 62.2422C152.549 62.0339 152.146 61.9036 151.781 61.8516C150.974 61.8516 150.245 62.0208 149.594 62.3594C148.943 62.6719 148.383 63.1016 147.914 63.6484C147.471 64.1693 147.12 64.7812 146.859 65.4844C146.625 66.1875 146.508 66.9167 146.508 67.6719C146.508 68.6354 146.573 69.5078 146.703 70.2891C146.833 71.0703 147.133 71.8646 147.602 72.6719C148.07 73.4792 148.773 74.3516 149.711 75.2891C150.648 76.2266 151.924 77.3203 153.539 78.5703C155.154 79.8203 156.56 81.0443 157.758 82.2422C158.956 83.4141 159.945 84.5729 160.727 85.7188C161.508 86.8646 162.094 88.0234 162.484 89.1953C162.875 90.3411 163.07 91.5391 163.07 92.7891C163.07 93.6224 162.979 94.5339 162.797 95.5234C162.641 96.487 162.354 97.4766 161.938 98.4922C161.547 99.4818 161.013 100.445 160.336 101.383C159.685 102.294 158.865 103.115 157.875 103.844C156.911 104.573 155.766 105.146 154.438 105.562C153.135 106.005 151.638 106.227 149.945 106.227C147.393 106.227 145.219 105.849 143.422 105.094C141.625 104.339 140.141 103.427 138.969 102.359C137.823 101.266 136.977 100.12 136.43 98.9219C135.909 97.724 135.648 96.6693 135.648 95.7578C135.648 94.7943 135.766 93.8958 136 93.0625C136.234 92.2292 136.599 91.5 137.094 90.875C137.615 90.25 138.266 89.7682 139.047 89.4297C139.854 89.0651 140.818 88.8828 141.938 88.8828C142.875 88.8828 143.721 89.026 144.477 89.3125C145.258 89.599 145.922 90.0286 146.469 90.6016C147.042 91.1484 147.484 91.8255 147.797 92.6328C148.109 93.4401 148.266 94.3516 148.266 95.3672C148.24 95.8099 148.148 96.2656 147.992 96.7344C147.862 97.125 147.641 97.5547 147.328 98.0234C147.016 98.4922 146.586 98.9349 146.039 99.3516C146.404 99.638 146.755 99.8594 147.094 100.016C147.458 100.146 147.784 100.237 148.07 100.289C148.383 100.367 148.695 100.406 149.008 100.406C149.346 100.406 149.737 100.315 150.18 100.133C150.648 99.9245 151.091 99.612 151.508 99.1953C151.924 98.7786 152.276 98.2708 152.562 97.6719C152.849 97.0729 152.992 96.3568 152.992 95.5234C152.992 94.6901 152.914 93.9349 152.758 93.2578C152.628 92.5547 152.328 91.8385 151.859 91.1094C151.417 90.3542 150.766 89.5339 149.906 88.6484C149.047 87.763 147.914 86.6953 146.508 85.4453C145.102 84.1953 143.852 82.9844 142.758 81.8125C141.664 80.6146 140.74 79.3776 139.984 78.1016C139.255 76.8255 138.695 75.4844 138.305 74.0781C137.914 72.6719 137.719 71.1224 137.719 69.4297C137.719 67.763 138.044 66.1484 138.695 64.5859C139.372 63.0234 140.323 61.6432 141.547 60.4453C142.771 59.2214 144.255 58.2578 146 57.5547C147.745 56.8255 149.698 56.4609 151.859 56.4609C154.047 56.4609 155.935 56.7995 157.523 57.4766C159.112 58.1536 160.414 59.0651 161.43 60.2109C162.445 61.3307 163.201 62.6328 163.695 64.1172C164.19 65.6016 164.438 67.1641 164.438 68.8047ZM196.312 95.6016C196.312 97.138 195.961 98.5833 195.258 99.9375C194.555 101.292 193.604 102.464 192.406 103.453C191.208 104.443 189.802 105.224 188.188 105.797C186.573 106.37 184.854 106.656 183.031 106.656C181.807 106.656 180.57 106.487 179.32 106.148C178.07 105.81 176.872 105.25 175.727 104.469C174.581 103.688 173.5 102.659 172.484 101.383C171.469 100.107 170.583 98.5443 169.828 96.6953C169.099 94.8464 168.513 92.6849 168.07 90.2109C167.654 87.7109 167.445 84.8464 167.445 81.6172C167.445 78.5703 167.654 75.875 168.07 73.5312C168.513 71.1875 169.099 69.1432 169.828 67.3984C170.583 65.6536 171.456 64.1953 172.445 63.0234C173.435 61.8255 174.49 60.862 175.609 60.1328C176.755 59.3776 177.927 58.8438 179.125 58.5312C180.349 58.2188 181.547 58.0625 182.719 58.0625C184.464 58.0625 186.117 58.349 187.68 58.9219C189.242 59.4688 190.609 60.2891 191.781 61.3828C192.953 62.4766 193.878 63.8307 194.555 65.4453C195.258 67.0339 195.609 68.8698 195.609 70.9531C195.609 72.8281 195.219 74.7292 194.438 76.6562C193.682 78.5573 192.549 80.3672 191.039 82.0859C189.529 83.7786 187.654 85.3281 185.414 86.7344C183.201 88.1146 180.648 89.2083 177.758 90.0156C177.914 91.6302 178.135 93.1016 178.422 94.4297C178.734 95.7578 179.112 96.8906 179.555 97.8281C180.023 98.7656 180.557 99.4948 181.156 100.016C181.781 100.536 182.497 100.797 183.305 100.797C183.826 100.771 184.32 100.68 184.789 100.523C185.206 100.393 185.622 100.185 186.039 99.8984C186.482 99.612 186.846 99.1953 187.133 98.6484C186.456 98.3359 185.935 97.9323 185.57 97.4375C185.206 96.9427 184.932 96.474 184.75 96.0312C184.542 95.5104 184.424 94.9635 184.398 94.3906C184.398 93.1406 184.646 92.125 185.141 91.3438C185.635 90.5625 186.221 89.9505 186.898 89.5078C187.576 89.0651 188.266 88.7656 188.969 88.6094C189.672 88.4271 190.232 88.3359 190.648 88.3359C191.091 88.3359 191.625 88.4271 192.25 88.6094C192.901 88.7917 193.526 89.1432 194.125 89.6641C194.724 90.1849 195.232 90.9271 195.648 91.8906C196.091 92.8281 196.312 94.0651 196.312 95.6016ZM186.664 71.0312C186.664 70.0938 186.573 69.2083 186.391 68.375C186.234 67.5156 185.987 66.7734 185.648 66.1484C185.336 65.5234 184.932 65.0286 184.438 64.6641C183.969 64.2734 183.422 64.0781 182.797 64.0781C181.729 64.0781 180.857 64.5729 180.18 65.5625C179.503 66.526 178.956 67.8151 178.539 69.4297C178.122 71.0443 177.836 72.9062 177.68 75.0156C177.523 77.125 177.445 79.3255 177.445 81.6172V84.4688C178.773 83.7656 179.997 82.9323 181.117 81.9688C182.263 81.0052 183.24 79.9505 184.047 78.8047C184.88 77.6328 185.518 76.3958 185.961 75.0938C186.43 73.7917 186.664 72.4375 186.664 71.0312ZM199.398 119.664C199.711 115.914 199.971 112.229 200.18 108.609C200.414 104.99 200.609 101.409 200.766 97.8672C200.922 94.2995 201.039 90.7448 201.117 87.2031C201.195 83.6615 201.234 80.0807 201.234 76.4609C201.234 71.6432 201.156 66.6693 201 61.5391L209.867 61.4219L209.633 65.7578C210.753 63.5703 212.055 61.8646 213.539 60.6406C215.023 59.4167 216.573 58.8047 218.188 58.8047C220.141 58.8047 221.872 59.2344 223.383 60.0938C224.919 60.9271 226.208 62.2552 227.25 64.0781C228.292 65.901 229.086 68.2318 229.633 71.0703C230.18 73.8828 230.453 77.2812 230.453 81.2656C230.453 85.8229 230.076 89.6641 229.32 92.7891C228.565 95.888 227.562 98.401 226.312 100.328C225.062 102.229 223.643 103.596 222.055 104.43C220.492 105.263 218.891 105.68 217.25 105.68C216.391 105.602 215.505 105.393 214.594 105.055C213.812 104.768 212.94 104.312 211.977 103.688C211.039 103.036 210.102 102.125 209.164 100.953C209.216 104.052 209.294 107.164 209.398 110.289C209.503 113.414 209.659 116.604 209.867 119.859L199.398 119.664ZM209.086 93.1016C209.346 93.5964 209.659 94.1302 210.023 94.7031C210.388 95.25 210.779 95.7708 211.195 96.2656C211.638 96.7344 212.107 97.125 212.602 97.4375C213.096 97.75 213.63 97.9062 214.203 97.9062C214.984 97.9062 215.753 97.5938 216.508 96.9688C217.289 96.3177 217.979 95.3151 218.578 93.9609C219.177 92.5807 219.659 90.8099 220.023 88.6484C220.414 86.4609 220.609 83.8438 220.609 80.7969C220.609 78.2969 220.479 76.1484 220.219 74.3516C219.984 72.5286 219.659 71.0312 219.242 69.8594C218.826 68.6615 218.331 67.7891 217.758 67.2422C217.185 66.6693 216.586 66.3828 215.961 66.3828C215.44 66.3828 214.932 66.5781 214.438 66.9688C213.943 67.3333 213.461 67.8151 212.992 68.4141C212.549 68.987 212.133 69.651 211.742 70.4062C211.352 71.1354 210.987 71.8646 210.648 72.5938C210.336 73.2969 210.062 73.9609 209.828 74.5859C209.594 75.2109 209.424 75.7057 209.32 76.0703C209.242 78.8568 209.177 81.5911 209.125 84.2734C209.099 86.9557 209.086 89.6641 209.086 92.3984V93.1016ZM245.297 43.9219C245.141 47.099 244.997 50.0417 244.867 52.75C244.737 55.4583 244.62 58.0104 244.516 60.4062C244.438 62.8021 244.372 65.0807 244.32 67.2422C244.268 69.4036 244.216 71.5391 244.164 73.6484C244.138 75.7578 244.112 77.8802 244.086 80.0156C244.086 82.151 244.086 84.3906 244.086 86.7344C244.086 89.3385 244.086 92.125 244.086 95.0938C244.086 98.0625 244.112 101.357 244.164 104.977L235.297 104.781C235.453 100.849 235.557 96.9818 235.609 93.1797C235.661 89.3516 235.688 85.4323 235.688 81.4219C235.688 78.7396 235.674 75.9922 235.648 73.1797C235.622 70.3411 235.583 67.3854 235.531 64.3125C235.479 61.2135 235.414 57.9583 235.336 54.5469C235.284 51.1354 235.219 47.5156 235.141 43.6875L245.297 43.9219ZM268.617 105.602C268.461 104.794 268.318 103.974 268.188 103.141C268.057 102.307 267.953 101.448 267.875 100.562C266.677 102.333 265.245 103.688 263.578 104.625C261.911 105.589 260.089 106.07 258.109 106.07C257.094 106.07 256.052 105.901 254.984 105.562C253.917 105.25 252.94 104.69 252.055 103.883C251.195 103.076 250.479 101.982 249.906 100.602C249.359 99.1953 249.086 97.4245 249.086 95.2891C249.086 93.5182 249.346 91.9818 249.867 90.6797C250.388 89.3516 251.065 88.1927 251.898 87.2031C252.732 86.2135 253.669 85.3542 254.711 84.625C255.753 83.8958 256.781 83.2448 257.797 82.6719C258.839 82.099 259.828 81.5651 260.766 81.0703C261.703 80.5755 262.471 80.0807 263.07 79.5859C264.216 78.6745 265.206 77.7109 266.039 76.6953C266.898 75.6536 267.589 74.5729 268.109 73.4531C268.005 71.6562 267.81 70.1849 267.523 69.0391C267.263 67.8672 266.911 66.9427 266.469 66.2656C266.026 65.5625 265.479 65.0807 264.828 64.8203C264.203 64.5339 263.487 64.3906 262.68 64.3906C261.482 64.3906 260.466 64.651 259.633 65.1719C258.826 65.6927 258.161 66.3177 257.641 67.0469C258.292 67.4635 258.786 67.9062 259.125 68.375C259.49 68.8438 259.763 69.2995 259.945 69.7422C260.154 70.237 260.271 70.7448 260.297 71.2656C260.297 73.0365 259.789 74.3906 258.773 75.3281C257.784 76.2656 256.508 76.7344 254.945 76.7344C254.138 76.7344 253.396 76.5521 252.719 76.1875C252.042 75.7969 251.443 75.263 250.922 74.5859C250.427 73.9089 250.036 73.1016 249.75 72.1641C249.464 71.2266 249.32 70.2109 249.32 69.1172C249.32 68.0234 249.568 66.8646 250.062 65.6406C250.557 64.4167 251.352 63.2839 252.445 62.2422C253.539 61.1745 254.945 60.3021 256.664 59.625C258.383 58.9219 260.466 58.5703 262.914 58.5703C265.362 58.5703 267.458 59.0521 269.203 60.0156C270.948 60.9531 272.38 62.2161 273.5 63.8047C274.62 65.3672 275.427 67.1771 275.922 69.2344C276.443 71.2917 276.703 73.4141 276.703 75.6016C276.703 77.2422 276.69 79.026 276.664 80.9531C276.638 82.8802 276.625 84.8594 276.625 86.8906C276.625 88.5833 276.638 90.276 276.664 91.9688C276.69 93.6615 276.742 95.3021 276.82 96.8906C276.898 98.4531 277.003 99.9375 277.133 101.344C277.263 102.724 277.432 103.961 277.641 105.055L268.617 105.602ZM268.031 82.7109C267.12 83.8047 266.143 84.7422 265.102 85.5234C264.32 86.0703 263.474 86.6823 262.562 87.3594C261.677 88.0365 260.844 88.7526 260.062 89.5078C259.307 90.263 258.669 91.0573 258.148 91.8906C257.654 92.6979 257.406 93.5312 257.406 94.3906C257.406 95.5625 257.693 96.5651 258.266 97.3984C258.839 98.2318 259.646 98.6484 260.688 98.6484C261.651 98.6484 262.51 98.388 263.266 97.8672C264.021 97.3464 264.685 96.7083 265.258 95.9531C265.857 95.1719 266.352 94.3385 266.742 93.4531C267.159 92.5677 267.484 91.7604 267.719 91.0312L268.031 82.7109ZM311.039 70.7969C311.039 72.5938 310.792 74.026 310.297 75.0938C309.828 76.1354 309.255 76.9297 308.578 77.4766C307.927 77.9974 307.25 78.3359 306.547 78.4922C305.87 78.6484 305.31 78.7266 304.867 78.7266C304.424 78.7266 303.891 78.6615 303.266 78.5312C302.641 78.375 302.029 78.0885 301.43 77.6719C300.857 77.2292 300.362 76.6172 299.945 75.8359C299.555 75.0286 299.359 73.987 299.359 72.7109C299.385 72.0078 299.516 71.3177 299.75 70.6406C299.958 70.0677 300.271 69.4818 300.688 68.8828C301.104 68.2839 301.703 67.776 302.484 67.3594C302.042 66.3698 301.547 65.6146 301 65.0938C300.479 64.5729 299.971 64.1823 299.477 63.9219C298.904 63.6354 298.331 63.4531 297.758 63.375C296.794 63.375 295.922 63.8177 295.141 64.7031C294.359 65.5885 293.695 66.8385 293.148 68.4531C292.602 70.0417 292.172 71.9557 291.859 74.1953C291.573 76.4349 291.43 78.9089 291.43 81.6172C291.43 84.2995 291.521 86.8125 291.703 89.1562C291.911 91.474 292.237 93.5052 292.68 95.25C293.122 96.9688 293.721 98.3229 294.477 99.3125C295.232 100.302 296.169 100.797 297.289 100.797C297.888 100.771 298.487 100.628 299.086 100.367C299.607 100.159 300.154 99.8203 300.727 99.3516C301.326 98.8568 301.859 98.1667 302.328 97.2812C301.417 96.8385 300.714 96.3047 300.219 95.6797C299.75 95.0286 299.411 94.4036 299.203 93.8047C298.943 93.1016 298.799 92.3724 298.773 91.6172C298.773 90.3672 299.021 89.3516 299.516 88.5703C300.01 87.7891 300.596 87.1771 301.273 86.7344C301.951 86.2656 302.641 85.9531 303.344 85.7969C304.047 85.6146 304.607 85.5234 305.023 85.5234C305.466 85.5234 306.013 85.6146 306.664 85.7969C307.315 85.9792 307.94 86.3307 308.539 86.8516C309.138 87.3724 309.646 88.1146 310.062 89.0781C310.505 90.0156 310.727 91.2526 310.727 92.7891C310.727 94.3255 310.349 95.9141 309.594 97.5547C308.865 99.1953 307.862 100.693 306.586 102.047C305.336 103.401 303.878 104.508 302.211 105.367C300.57 106.227 298.839 106.656 297.016 106.656C295.792 106.656 294.555 106.487 293.305 106.148C292.055 105.81 290.857 105.25 289.711 104.469C288.565 103.688 287.484 102.659 286.469 101.383C285.453 100.107 284.568 98.5443 283.812 96.6953C283.083 94.8464 282.497 92.6849 282.055 90.2109C281.638 87.7109 281.43 84.8464 281.43 81.6172C281.43 78.388 281.664 75.5625 282.133 73.1406C282.602 70.6927 283.24 68.5964 284.047 66.8516C284.88 65.1068 285.831 63.6615 286.898 62.5156C287.966 61.3698 289.099 60.4583 290.297 59.7812C291.521 59.1042 292.771 58.6354 294.047 58.375C295.323 58.1146 296.56 57.9844 297.758 57.9844C299.529 57.9844 301.221 58.3229 302.836 59C304.451 59.651 305.857 60.5625 307.055 61.7344C308.279 62.8802 309.242 64.2344 309.945 65.7969C310.674 67.3594 311.039 69.026 311.039 70.7969Z" fill="#840067"/>
</svg>
