<svg width="112" height="112" viewBox="0 0 112 112" fill="none" xmlns="http://www.w3.org/2000/svg">
<g filter="url(#filter0_d)">
<line x1="46.5" y1="76.7336" x2="46.5" y2="51.7336" stroke="#840067" stroke-width="5"/>
<path d="M36.9554 59.2409C37.458 45.1054 43.3215 55.3181 64 49.4712" stroke="#840067" stroke-width="10"/>
<path d="M89 70C89 71.332 88.5026 72.3783 86.3439 73.4679C83.9078 74.6975 80.1075 75.4888 75.2175 75.8559C70.4353 76.215 65.1272 76.1387 59.9645 75.9593C58.3819 75.9044 56.7909 75.8384 55.2336 75.7738C51.8516 75.6336 48.6292 75.5 46 75.5C33.8497 75.5 24 65.6503 24 53.5C24 47.1992 26.6285 39.0297 31.0564 32.4495C35.5172 25.8204 40.8675 22.1011 45.7981 22.002C49.0489 22.3292 53.3848 24.2669 58.3783 27.8713C63.3589 31.4663 68.5002 36.3598 73.1561 41.7418C77.8085 47.1199 81.8612 52.853 84.7211 58.0496C87.6856 63.4362 89 67.5899 89 70Z" stroke="#840067" stroke-width="10"/>
<path d="M65.5571 93.755C64.0367 95.1313 62.2832 95.4121 59.6578 94.401C56.8294 93.3116 53.5187 90.8581 49.9259 87.4424C46.388 84.0788 42.8387 80.0404 39.4999 76.0843C38.4601 74.8523 37.4311 73.6163 36.4289 72.4125C34.2753 69.8257 32.2461 67.3883 30.5029 65.4626C21.7927 55.8409 22.5316 40.9799 32.1534 32.2696C37.0814 27.8085 45.1937 24.1696 53.2872 23.001C61.4296 21.8253 68.4295 23.2745 72.2936 27.4402C74.495 30.3793 76.0274 35.236 76.7227 41.5028C77.4158 47.75 77.2312 54.9657 76.3554 62.1149C75.48 69.2604 73.929 76.2172 71.9563 81.9395C69.9342 87.8053 67.6369 91.8722 65.5571 93.755Z" stroke="#4F003D" stroke-opacity="0.58" stroke-width="7"/>
<path d="M92.3452 40.8484C93.7571 42.3357 94.0795 44.0821 93.1307 46.7307C92.1086 49.5841 89.7341 52.952 86.4044 56.6246C83.1255 60.2411 79.1722 63.885 75.2963 67.3165C74.0893 68.3851 72.8779 69.4432 71.6982 70.4735C69.1631 72.6878 66.7744 74.7741 64.8906 76.5624C55.4777 85.4979 40.6033 85.1109 31.6678 75.698C27.0913 70.877 23.2614 62.8531 21.9015 54.7896C20.5334 46.6773 21.8166 39.645 25.8896 35.6834C28.7758 33.4131 33.5948 31.7661 39.8435 30.9227C46.0725 30.0819 53.2906 30.0956 60.4584 30.802C67.6226 31.508 74.6143 32.8939 80.3816 34.7306C86.2937 36.6133 90.4138 38.8137 92.3452 40.8484Z" stroke="#89006B" stroke-opacity="0.37" stroke-width="7"/>
</g>
<defs>
<filter id="filter0_d" x="0" y="0" width="112" height="112" filterUnits="userSpaceOnUse" color-interpolation-filters="sRGB">
<feFlood flood-opacity="0" result="BackgroundImageFix"/>
<feColorMatrix in="SourceAlpha" type="matrix" values="0 0 0 0 0 0 0 0 0 0 0 0 0 0 0 0 0 0 127 0"/>
<feOffset dy="4"/>
<feGaussianBlur stdDeviation="2"/>
<feColorMatrix type="matrix" values="0 0 0 0 0 0 0 0 0 0 0 0 0 0 0 0 0 0 0.25 0"/>
<feBlend mode="normal" in2="BackgroundImageFix" result="effect1_dropShadow"/>
<feBlend mode="normal" in="SourceGraphic" in2="effect1_dropShadow" result="shape"/>
</filter>
</defs>
</svg>
